<svg xmlns="http://www.w3.org/2000/svg" xmlns:xlink="http://www.w3.org/1999/xlink" width="1274" height="427.444" viewBox="0 0 1274 427.444"><defs><style>.a,.b{fill:#fff;}.a{stroke:#f3f3f3;}.c,.d{fill:#3e3f68;}.c{stroke:#707070;opacity:0.5;}.e{fill:#f2f2f2;}.f,.g,.j{fill:none;}.f{stroke:#fff;stroke-linecap:round;stroke-width:8px;}.g,.h{stroke:#6e7faa;stroke-miterlimit:10;}.g{stroke-width:5.5px;}.h{fill:#6e7faa;stroke-width:0.5px;}.i{stroke:none;}.k{filter:url(#a);}</style><filter id="a" x="0" y="42.243" width="1274" height="385.2" filterUnits="userSpaceOnUse"><feOffset dy="-11" input="SourceAlpha"/><feGaussianBlur stdDeviation="25" result="b"/><feFlood flood-opacity="0.039"/><feComposite operator="in" in2="b"/><feComposite in="SourceGraphic"/></filter></defs><g transform="translate(1695 -1593.383)"><g class="k" transform="matrix(1, 0, 0, 1, -1695, 1593.38)"><g class="a" transform="translate(75 128.24)"><path class="i" d="M80,0h964a80,80,0,0,1,80,80V235.2a0,0,0,0,1,0,0H0a0,0,0,0,1,0,0V80A80,80,0,0,1,80,0Z"/><path class="j" d="M80,.5h964A79.5,79.5,0,0,1,1123.5,80V234.2a.5.5,0,0,1-.5.5H1a.5.5,0,0,1-.5-.5V80A79.5,79.5,0,0,1,80,.5Z"/></g></g><path class="b" d="M80,0H224.8a0,0,0,0,1,0,0V151.105a0,0,0,0,1,0,0H0a0,0,0,0,1,0,0V80A80,80,0,0,1,80,0Z" transform="translate(-1620 1745)"/><rect class="b" width="224.8" height="151.105" transform="translate(-945.6 1744.626)"/><path class="b" d="M0,0H144.8a80,80,0,0,1,80,80v71.105a0,0,0,0,1,0,0H0a0,0,0,0,1,0,0V0A0,0,0,0,1,0,0Z" transform="translate(-721 1745)"/><rect class="b" width="224.8" height="151.105" transform="translate(-1170.4 1729)"/><rect class="b" width="224.8" height="151.105" transform="translate(-1395.2 1745)"/><g class="c" transform="translate(-1146.054 1683.383)"><circle class="i" cx="88.054" cy="88.054" r="88.054"/><circle class="j" cx="88.054" cy="88.054" r="87.554"/></g><circle class="d" cx="88.054" cy="88.054" r="88.054" transform="translate(-1146 1648)"/><rect class="e" width="317" height="10" rx="5" transform="translate(-1228 1911)"/><g transform="translate(-1531.905 1346.095)"><line class="f" y2="61.582" transform="translate(474.291 358.5)"/><line class="f" x2="61.582" transform="translate(443.5 389.291)"/></g><path class="d" d="M284.8,149.094,250.32,120.361a2.472,2.472,0,0,0-3.12,0l-34.479,28.733a2.472,2.472,0,0,0-.328,3.448,2.545,2.545,0,0,0,3.448.328l6.65-5.5v30.21c0,5.5,4.843,9.933,10.836,9.933h30.785c5.993,0,10.836-4.433,10.836-9.933V147.37l6.65,5.5a2.3,2.3,0,0,0,1.56.575,2.455,2.455,0,0,0,1.888-.9A2.325,2.325,0,0,0,284.8,149.094Zm-41.785,33.33v-17.24a2.419,2.419,0,0,1,2.463-2.463h6.567a2.419,2.419,0,0,1,2.463,2.463v17.24Z" transform="translate(-1749.754 1666.257)"/><path class="g" d="M503.913,183.438l-15.128-12.026a3.974,3.974,0,0,0-4.911,0l-15.128,12.026a2.747,2.747,0,0,1-4.419-2.3V136.528c0-6.874,5.322-12.446,11.887-12.446h20.23c6.565,0,11.887,5.572,11.887,12.446v44.613A2.747,2.747,0,0,1,503.913,183.438Z" transform="translate(-1762.182 1665.463)"/><g transform="translate(-1310.813 1665.918)"><circle class="g" cx="12.37" cy="12.37" r="12.37" transform="translate(690.318 124.082)"/><rect class="g" width="41.75" height="26.164" rx="13.082" transform="translate(681.813 158.486)"/></g><g transform="translate(-1714.755 1659.096)"><g transform="translate(849.459 128.082)"><path class="h" d="M907.755,175.346a6.735,6.735,0,0,1-6.737,6.726H856.2a6.727,6.727,0,1,1-.009-13.453s0-18.116,0-18.116a22.422,22.422,0,0,1,44.843,0v18.114A6.736,6.736,0,0,1,907.755,175.346Zm-6.729-2.242a4.479,4.479,0,0,1-4.481-4.487V150.5a17.937,17.937,0,0,0-35.874,0v18.114a4.487,4.487,0,0,1-4.482,4.487,2.242,2.242,0,1,0,.009,4.484h44.821a2.242,2.242,0,1,0,.008-4.484Zm-32.509,12.332H873a5.606,5.606,0,0,0,11.211,0H888.7a10.09,10.09,0,0,1-20.18,0Z" transform="translate(-849.459 -128.082)"/></g></g></g></svg>